<svg width="64" height="48" viewBox="0 0 64 48" fill="none" xmlns="http://www.w3.org/2000/svg">
<rect width="64" height="48" rx="8" fill="#596070"/>
<path d="M19.3828 29C19.2801 29 19.2008 28.972 19.1448 28.916C19.0888 28.8507 19.0608 28.7713 19.0608 28.678V19.522C19.0608 19.4287 19.0888 19.354 19.1448 19.298C19.2008 19.2327 19.2801 19.2 19.3828 19.2H20.1248C20.2181 19.2 20.2928 19.2327 20.3488 19.298C20.4141 19.354 20.4468 19.4287 20.4468 19.522V27.782H25.0948C25.1974 27.782 25.2768 27.8147 25.3328 27.88C25.3981 27.936 25.4308 28.0153 25.4308 28.118V28.678C25.4308 28.7713 25.3981 28.8507 25.3328 28.916C25.2768 28.972 25.1974 29 25.0948 29H19.3828ZM27.2714 29C27.1688 29 27.0894 28.972 27.0334 28.916C26.9774 28.8507 26.9494 28.7713 26.9494 28.678V19.522C26.9494 19.4287 26.9774 19.354 27.0334 19.298C27.0894 19.2327 27.1688 19.2 27.2714 19.2H28.0134C28.1161 19.2 28.1954 19.2327 28.2514 19.298C28.3074 19.354 28.3354 19.4287 28.3354 19.522V28.678C28.3354 28.7713 28.3074 28.8507 28.2514 28.916C28.1954 28.972 28.1161 29 28.0134 29H27.2714ZM33.2416 29C33.1482 29 33.0689 28.972 33.0036 28.916C32.9476 28.8507 32.9196 28.7713 32.9196 28.678V20.446H30.2316C30.1382 20.446 30.0589 20.418 29.9936 20.362C29.9376 20.2967 29.9096 20.2173 29.9096 20.124V19.536C29.9096 19.4333 29.9376 19.354 29.9936 19.298C30.0589 19.2327 30.1382 19.2 30.2316 19.2H36.9796C37.0822 19.2 37.1616 19.2327 37.2176 19.298C37.2829 19.354 37.3156 19.4333 37.3156 19.536V20.124C37.3156 20.2173 37.2829 20.2967 37.2176 20.362C37.1616 20.418 37.0822 20.446 36.9796 20.446H34.3056V28.678C34.3056 28.7713 34.2729 28.8507 34.2076 28.916C34.1516 28.972 34.0722 29 33.9696 29H33.2416ZM39.207 29C39.1043 29 39.025 28.972 38.969 28.916C38.913 28.8507 38.885 28.7713 38.885 28.678V19.536C38.885 19.4333 38.913 19.354 38.969 19.298C39.025 19.2327 39.1043 19.2 39.207 19.2H44.989C45.0917 19.2 45.171 19.2327 45.227 19.298C45.283 19.354 45.311 19.4333 45.311 19.536V20.068C45.311 20.1707 45.283 20.25 45.227 20.306C45.171 20.362 45.0917 20.39 44.989 20.39H40.229V23.456H44.681C44.7837 23.456 44.863 23.4887 44.919 23.554C44.975 23.61 45.003 23.6893 45.003 23.792V24.31C45.003 24.4033 44.975 24.4827 44.919 24.548C44.863 24.604 44.7837 24.632 44.681 24.632H40.229V27.81H45.101C45.2037 27.81 45.283 27.838 45.339 27.894C45.395 27.95 45.423 28.0293 45.423 28.132V28.678C45.423 28.7713 45.395 28.8507 45.339 28.916C45.283 28.972 45.2037 29 45.101 29H39.207Z" fill="white"/>
<circle cx="54" cy="10" r="4" fill="#1BE176"/>
</svg>
