<svg width="64" height="48" viewBox="0 0 64 48" fill="none" xmlns="http://www.w3.org/2000/svg">
<rect width="64" height="48" rx="8" fill="#596070"/>
<path d="M18.0038 29C17.9012 29 17.8172 28.9673 17.7518 28.902C17.6865 28.8273 17.6538 28.7433 17.6538 28.65V19.55C17.6538 19.4473 17.6865 19.3633 17.7518 19.298C17.8172 19.2327 17.9012 19.2 18.0038 19.2H19.8518C19.9545 19.2 20.0385 19.2327 20.1038 19.298C20.1692 19.3633 20.2018 19.4473 20.2018 19.55V26.886H24.4438C24.5465 26.886 24.6305 26.9233 24.6958 26.998C24.7612 27.0633 24.7938 27.1473 24.7938 27.25V28.65C24.7938 28.7433 24.7612 28.8273 24.6958 28.902C24.6305 28.9673 24.5465 29 24.4438 29H18.0038ZM26.3573 29C26.2547 29 26.1707 28.9673 26.1053 28.902C26.04 28.8273 26.0073 28.7433 26.0073 28.65V19.55C26.0073 19.4473 26.04 19.3633 26.1053 19.298C26.1707 19.2327 26.2547 19.2 26.3573 19.2H28.2333C28.336 19.2 28.42 19.2327 28.4853 19.298C28.56 19.3633 28.5973 19.4473 28.5973 19.55V28.65C28.5973 28.7433 28.56 28.8273 28.4853 28.902C28.42 28.9673 28.336 29 28.2333 29H26.3573ZM33.0524 29C32.9497 29 32.8657 28.9673 32.8004 28.902C32.7351 28.8273 32.7024 28.7433 32.7024 28.65V21.398H30.2104C30.1077 21.398 30.0237 21.3653 29.9584 21.3C29.8931 21.2253 29.8604 21.1413 29.8604 21.048V19.55C29.8604 19.4473 29.8931 19.3633 29.9584 19.298C30.0237 19.2327 30.1077 19.2 30.2104 19.2H37.7424C37.8451 19.2 37.9291 19.2327 37.9944 19.298C38.0597 19.3633 38.0924 19.4473 38.0924 19.55V21.048C38.0924 21.1413 38.0597 21.2253 37.9944 21.3C37.9291 21.3653 37.8451 21.398 37.7424 21.398H35.2504V28.65C35.2504 28.7433 35.2177 28.8273 35.1524 28.902C35.0871 28.9673 35.0031 29 34.9004 29H33.0524ZM39.7148 29C39.6121 29 39.5281 28.9673 39.4628 28.902C39.3974 28.8273 39.3648 28.7433 39.3648 28.65V19.55C39.3648 19.4473 39.3974 19.3633 39.4628 19.298C39.5281 19.2327 39.6121 19.2 39.7148 19.2H46.2528C46.3554 19.2 46.4394 19.2327 46.5048 19.298C46.5701 19.3633 46.6028 19.4473 46.6028 19.55V20.866C46.6028 20.9687 46.5701 21.0527 46.5048 21.118C46.4394 21.1833 46.3554 21.216 46.2528 21.216H41.7868V23.106H45.9448C46.0474 23.106 46.1314 23.1433 46.1968 23.218C46.2621 23.2833 46.2948 23.3673 46.2948 23.47V24.688C46.2948 24.7813 46.2621 24.8653 46.1968 24.94C46.1314 25.0053 46.0474 25.038 45.9448 25.038H41.7868V26.984H46.3648C46.4674 26.984 46.5514 27.0167 46.6168 27.082C46.6821 27.1473 46.7148 27.2313 46.7148 27.334V28.65C46.7148 28.7433 46.6821 28.8273 46.6168 28.902C46.5514 28.9673 46.4674 29 46.3648 29H39.7148Z" fill="white"/>
<circle cx="54" cy="10" r="4" fill="#1BE176"/>
</svg>
