<svg width="64" height="48" viewBox="0 0 64 48" fill="none" xmlns="http://www.w3.org/2000/svg">
<rect width="64" height="48" rx="8" fill="#596070"/>
<path d="M19.4514 29C19.3487 29 19.2694 28.972 19.2134 28.916C19.1574 28.8507 19.1294 28.7713 19.1294 28.678V19.536C19.1294 19.4333 19.1574 19.354 19.2134 19.298C19.2694 19.2327 19.3487 19.2 19.4514 19.2H23.0074C23.6981 19.2 24.2954 19.312 24.7994 19.536C25.3127 19.76 25.7094 20.096 25.9894 20.544C26.2694 20.9827 26.4094 21.5333 26.4094 22.196C26.4094 22.8587 26.2694 23.4093 25.9894 23.848C25.7094 24.2867 25.3127 24.618 24.7994 24.842C24.2954 25.066 23.6981 25.178 23.0074 25.178H20.5294V28.678C20.5294 28.7713 20.4967 28.8507 20.4314 28.916C20.3754 28.972 20.2961 29 20.1934 29H19.4514ZM20.5154 24.002H22.9374C23.6281 24.002 24.1461 23.848 24.4914 23.54C24.8367 23.232 25.0094 22.784 25.0094 22.196C25.0094 21.6173 24.8414 21.1693 24.5054 20.852C24.1694 20.5347 23.6467 20.376 22.9374 20.376H20.5154V24.002ZM28.7138 29C28.6112 29 28.5318 28.972 28.4758 28.916C28.4198 28.8507 28.3918 28.7713 28.3918 28.678V19.536C28.3918 19.4333 28.4198 19.354 28.4758 19.298C28.5318 19.2327 28.6112 19.2 28.7138 19.2H32.1298C33.1845 19.2 34.0198 19.4473 34.6358 19.942C35.2518 20.4367 35.5598 21.1693 35.5598 22.14C35.5598 22.8587 35.3778 23.4467 35.0138 23.904C34.6592 24.352 34.1738 24.6647 33.5578 24.842L35.7138 28.566C35.7418 28.622 35.7558 28.6733 35.7558 28.72C35.7558 28.7947 35.7232 28.86 35.6578 28.916C35.6018 28.972 35.5365 29 35.4618 29H34.7898C34.6312 29 34.5145 28.958 34.4398 28.874C34.3652 28.79 34.2998 28.706 34.2438 28.622L32.2138 25.066H29.7638V28.678C29.7638 28.7713 29.7312 28.8507 29.6658 28.916C29.6098 28.972 29.5305 29 29.4278 29H28.7138ZM29.7638 23.876H32.0738C32.7738 23.876 33.2965 23.7313 33.6418 23.442C33.9872 23.1433 34.1598 22.7047 34.1598 22.126C34.1598 21.5567 33.9872 21.1227 33.6418 20.824C33.3058 20.5253 32.7832 20.376 32.0738 20.376H29.7638V23.876ZM41.36 29.14C40.5573 29.14 39.8713 29.0047 39.302 28.734C38.7326 28.454 38.294 28.0293 37.986 27.46C37.678 26.8813 37.5053 26.158 37.468 25.29C37.4586 24.8793 37.454 24.4873 37.454 24.114C37.454 23.7313 37.4586 23.3347 37.468 22.924C37.5053 22.0653 37.6826 21.3513 38 20.782C38.3266 20.2033 38.7746 19.774 39.344 19.494C39.9226 19.2047 40.5946 19.06 41.36 19.06C42.116 19.06 42.7787 19.2047 43.348 19.494C43.9267 19.774 44.3793 20.2033 44.706 20.782C45.0327 21.3513 45.21 22.0653 45.238 22.924C45.2567 23.3347 45.266 23.7313 45.266 24.114C45.266 24.4873 45.2567 24.8793 45.238 25.29C45.21 26.158 45.0373 26.8813 44.72 27.46C44.412 28.0293 43.9733 28.454 43.404 28.734C42.8347 29.0047 42.1533 29.14 41.36 29.14ZM41.36 27.95C42.0693 27.95 42.648 27.7353 43.096 27.306C43.5533 26.8767 43.8007 26.1813 43.838 25.22C43.8567 24.8 43.866 24.4267 43.866 24.1C43.866 23.764 43.8567 23.3907 43.838 22.98C43.8193 22.336 43.698 21.8133 43.474 21.412C43.2593 21.0107 42.97 20.7167 42.606 20.53C42.242 20.3433 41.8267 20.25 41.36 20.25C40.8933 20.25 40.478 20.3433 40.114 20.53C39.75 20.7167 39.456 21.0107 39.232 21.412C39.0173 21.8133 38.896 22.336 38.868 22.98C38.8586 23.3907 38.854 23.764 38.854 24.1C38.854 24.4267 38.8586 24.8 38.868 25.22C38.9053 26.1813 39.1526 26.8767 39.61 27.306C40.0673 27.7353 40.6507 27.95 41.36 27.95Z" fill="white"/>
<circle cx="52" cy="10" r="4" fill="#1BE176"/>
</svg>
