<svg width="64" height="48" viewBox="0 0 64 48" fill="none" xmlns="http://www.w3.org/2000/svg">
<rect width="64" height="48" rx="8" fill="#596070"/>
<path d="M18.5832 29C18.4899 29 18.4106 28.972 18.3452 28.916C18.2892 28.8507 18.2612 28.7713 18.2612 28.678V19.536C18.2612 19.4333 18.2892 19.354 18.3452 19.298C18.4106 19.2327 18.4899 19.2 18.5832 19.2H19.2832C19.3952 19.2 19.4792 19.228 19.5352 19.284C19.5912 19.34 19.6286 19.3867 19.6472 19.424L22.6012 25.08L25.5832 19.424C25.6019 19.3867 25.6346 19.34 25.6812 19.284C25.7372 19.228 25.8212 19.2 25.9332 19.2H26.6192C26.7219 19.2 26.8012 19.2327 26.8572 19.298C26.9226 19.354 26.9552 19.4333 26.9552 19.536V28.678C26.9552 28.7713 26.9226 28.8507 26.8572 28.916C26.8012 28.972 26.7219 29 26.6192 29H25.9332C25.8399 29 25.7606 28.972 25.6952 28.916C25.6392 28.8507 25.6112 28.7713 25.6112 28.678V21.79L23.2732 26.354C23.2359 26.4473 23.1799 26.522 23.1052 26.578C23.0306 26.6247 22.9372 26.648 22.8252 26.648H22.3912C22.2699 26.648 22.1766 26.6247 22.1112 26.578C22.0459 26.522 21.9899 26.4473 21.9432 26.354L19.5912 21.79V28.678C19.5912 28.7713 19.5586 28.8507 19.4932 28.916C19.4372 28.972 19.3626 29 19.2692 29H18.5832ZM28.9985 29C28.9238 29 28.8585 28.972 28.8025 28.916C28.7465 28.86 28.7185 28.7947 28.7185 28.72C28.7185 28.6733 28.7231 28.622 28.7325 28.566L32.2045 19.508C32.2418 19.4147 32.2931 19.34 32.3585 19.284C32.4238 19.228 32.5218 19.2 32.6525 19.2H33.6045C33.7351 19.2 33.8331 19.228 33.8985 19.284C33.9638 19.34 34.0151 19.4147 34.0525 19.508L37.5105 28.566C37.5291 28.622 37.5385 28.6733 37.5385 28.72C37.5385 28.7947 37.5105 28.86 37.4545 28.916C37.3985 28.972 37.3331 29 37.2585 29H36.5445C36.4325 29 36.3485 28.972 36.2925 28.916C36.2458 28.86 36.2131 28.8087 36.1945 28.762L35.4245 26.774H30.8325L30.0625 28.762C30.0531 28.8087 30.0205 28.86 29.9645 28.916C29.9085 28.972 29.8245 29 29.7125 29H28.9985ZM31.2385 25.57H35.0185L33.1285 20.6L31.2385 25.57ZM38.7274 29C38.6527 29 38.5827 28.972 38.5174 28.916C38.4614 28.86 38.4334 28.7947 38.4334 28.72C38.4334 28.6827 38.438 28.65 38.4474 28.622C38.466 28.5847 38.48 28.5567 38.4894 28.538L41.6954 24.016L38.6434 19.662C38.6154 19.606 38.6014 19.5453 38.6014 19.48C38.6014 19.4053 38.6294 19.34 38.6854 19.284C38.7414 19.228 38.8067 19.2 38.8814 19.2H39.7214C39.8147 19.2 39.8894 19.2233 39.9454 19.27C40.0014 19.3073 40.0527 19.3633 40.0994 19.438L42.5634 22.938L45.0134 19.438C45.0507 19.3633 45.0974 19.3073 45.1534 19.27C45.2187 19.2233 45.2934 19.2 45.3774 19.2H46.1754C46.25 19.2 46.3154 19.228 46.3714 19.284C46.4274 19.34 46.4554 19.4053 46.4554 19.48C46.4554 19.5453 46.4367 19.606 46.3994 19.662L43.3894 24.03L46.5814 28.538C46.6 28.5567 46.614 28.5847 46.6234 28.622C46.6327 28.65 46.6374 28.6827 46.6374 28.72C46.6374 28.7947 46.6094 28.86 46.5534 28.916C46.4974 28.972 46.4274 29 46.3434 29H45.4894C45.4054 29 45.3307 28.9767 45.2654 28.93C45.2094 28.8833 45.158 28.8273 45.1114 28.762L42.5074 25.136L39.9174 28.762C39.8707 28.8273 39.8194 28.8833 39.7634 28.93C39.7074 28.9767 39.6374 29 39.5534 29H38.7274Z" fill="white"/>
<circle cx="54" cy="10" r="4" fill="#1BE176"/>
</svg>
