<svg width="128" height="48" viewBox="0 0 128 48" fill="none" xmlns="http://www.w3.org/2000/svg">
<rect width="128" height="48" rx="8" fill="url(#paint0_linear_2145_969)"/>
<path d="M20.4333 30C20.3013 30 20.1933 29.958 20.1093 29.874C20.0253 29.778 19.9833 29.67 19.9833 29.55V17.85C19.9833 17.718 20.0253 17.61 20.1093 17.526C20.1933 17.442 20.3013 17.4 20.4333 17.4H22.8093C22.9413 17.4 23.0493 17.442 23.1333 17.526C23.2173 17.61 23.2593 17.718 23.2593 17.85V27.282H28.7133C28.8453 27.282 28.9533 27.33 29.0373 27.426C29.1213 27.51 29.1633 27.618 29.1633 27.75V29.55C29.1633 29.67 29.1213 29.778 29.0373 29.874C28.9533 29.958 28.8453 30 28.7133 30H20.4333ZM35.2977 30.18C33.8817 30.18 32.7537 29.796 31.9137 29.028C31.0737 28.26 30.6357 27.12 30.5997 25.608C30.5997 25.524 30.5997 25.416 30.5997 25.284C30.5997 25.152 30.5997 25.05 30.5997 24.978C30.6357 24.03 30.8457 23.22 31.2297 22.548C31.6257 21.864 32.1657 21.348 32.8497 21C33.5457 20.64 34.3557 20.46 35.2797 20.46C36.3357 20.46 37.2057 20.67 37.8897 21.09C38.5857 21.51 39.1077 22.08 39.4557 22.8C39.8037 23.52 39.9777 24.342 39.9777 25.266V25.698C39.9777 25.83 39.9357 25.938 39.8517 26.022C39.7677 26.106 39.6597 26.148 39.5277 26.148H33.7677C33.7677 26.16 33.7677 26.178 33.7677 26.202C33.7677 26.226 33.7677 26.25 33.7677 26.274C33.7797 26.622 33.8397 26.94 33.9477 27.228C34.0677 27.516 34.2357 27.744 34.4517 27.912C34.6797 28.08 34.9557 28.164 35.2797 28.164C35.5197 28.164 35.7177 28.128 35.8737 28.056C36.0417 27.972 36.1797 27.882 36.2877 27.786C36.3957 27.678 36.4797 27.588 36.5397 27.516C36.6477 27.384 36.7317 27.306 36.7917 27.282C36.8637 27.246 36.9717 27.228 37.1157 27.228H39.3477C39.4677 27.228 39.5637 27.264 39.6357 27.336C39.7197 27.408 39.7557 27.504 39.7437 27.624C39.7317 27.828 39.6297 28.074 39.4377 28.362C39.2457 28.65 38.9637 28.938 38.5917 29.226C38.2317 29.502 37.7757 29.73 37.2237 29.91C36.6717 30.09 36.0297 30.18 35.2977 30.18ZM33.7677 24.366H36.8097V24.33C36.8097 23.934 36.7497 23.598 36.6297 23.322C36.5217 23.034 36.3477 22.812 36.1077 22.656C35.8797 22.5 35.6037 22.422 35.2797 22.422C34.9677 22.422 34.6977 22.5 34.4697 22.656C34.2417 22.812 34.0677 23.034 33.9477 23.322C33.8277 23.598 33.7677 23.934 33.7677 24.33V24.366ZM46.9756 30C46.2076 30 45.5416 29.88 44.9776 29.64C44.4256 29.388 43.9996 29.004 43.6996 28.488C43.3996 27.96 43.2496 27.282 43.2496 26.454V22.998H41.8456C41.7136 22.998 41.5996 22.956 41.5036 22.872C41.4196 22.788 41.3776 22.68 41.3776 22.548V21.09C41.3776 20.958 41.4196 20.85 41.5036 20.766C41.5996 20.682 41.7136 20.64 41.8456 20.64H43.2496V17.67C43.2496 17.538 43.2916 17.43 43.3756 17.346C43.4716 17.262 43.5796 17.22 43.6996 17.22H45.7876C45.9196 17.22 46.0276 17.262 46.1116 17.346C46.1956 17.43 46.2376 17.538 46.2376 17.67V20.64H48.4876C48.6196 20.64 48.7276 20.682 48.8116 20.766C48.9076 20.85 48.9556 20.958 48.9556 21.09V22.548C48.9556 22.68 48.9076 22.788 48.8116 22.872C48.7276 22.956 48.6196 22.998 48.4876 22.998H46.2376V26.202C46.2376 26.61 46.3156 26.934 46.4716 27.174C46.6276 27.414 46.8916 27.534 47.2636 27.534H48.6496C48.7816 27.534 48.8896 27.576 48.9736 27.66C49.0576 27.744 49.0996 27.852 49.0996 27.984V29.55C49.0996 29.67 49.0576 29.778 48.9736 29.874C48.8896 29.958 48.7816 30 48.6496 30H46.9756ZM51.1659 21.756C51.0579 21.756 50.9679 21.72 50.8959 21.648C50.8359 21.576 50.8119 21.474 50.8239 21.342L51.3639 17.832C51.3879 17.676 51.4479 17.538 51.5439 17.418C51.6519 17.286 51.8079 17.22 52.0119 17.22H54.1179C54.2139 17.22 54.2919 17.256 54.3519 17.328C54.4239 17.4 54.4599 17.484 54.4599 17.58C54.4599 17.652 54.4479 17.718 54.4239 17.778L53.0739 21.252C53.0259 21.372 52.9539 21.486 52.8579 21.594C52.7619 21.702 52.6119 21.756 52.4079 21.756H51.1659ZM59.6879 30.18C58.9079 30.18 58.2419 30.096 57.6899 29.928C57.1499 29.748 56.7059 29.532 56.3579 29.28C56.0219 29.028 55.7699 28.77 55.6019 28.506C55.4339 28.23 55.3439 27.99 55.3319 27.786C55.3199 27.654 55.3619 27.546 55.4579 27.462C55.5539 27.378 55.6559 27.336 55.7639 27.336H57.8159C57.8519 27.336 57.8819 27.342 57.9059 27.354C57.9419 27.366 57.9779 27.39 58.0139 27.426C58.1699 27.51 58.3259 27.618 58.4819 27.75C58.6379 27.87 58.8179 27.978 59.0219 28.074C59.2259 28.17 59.4719 28.218 59.7599 28.218C60.0959 28.218 60.3779 28.152 60.6059 28.02C60.8339 27.876 60.9479 27.678 60.9479 27.426C60.9479 27.234 60.8939 27.078 60.7859 26.958C60.6779 26.826 60.4559 26.7 60.1199 26.58C59.7959 26.46 59.3039 26.34 58.6439 26.22C58.0199 26.076 57.4739 25.89 57.0059 25.662C56.5379 25.422 56.1779 25.116 55.9259 24.744C55.6739 24.36 55.5479 23.898 55.5479 23.358C55.5479 22.878 55.7039 22.416 56.0159 21.972C56.3279 21.528 56.7839 21.168 57.3839 20.892C57.9839 20.604 58.7279 20.46 59.6159 20.46C60.2999 20.46 60.8999 20.544 61.4159 20.712C61.9319 20.868 62.3639 21.072 62.7119 21.324C63.0599 21.576 63.3239 21.834 63.5039 22.098C63.6839 22.362 63.7799 22.602 63.7919 22.818C63.8039 22.938 63.7679 23.046 63.6839 23.142C63.5999 23.226 63.5039 23.268 63.3959 23.268H61.5239C61.4759 23.268 61.4279 23.262 61.3799 23.25C61.3319 23.226 61.2899 23.202 61.2539 23.178C61.1099 23.106 60.9659 23.01 60.8219 22.89C60.6779 22.77 60.5099 22.662 60.3179 22.566C60.1259 22.47 59.8859 22.422 59.5979 22.422C59.2739 22.422 59.0219 22.494 58.8419 22.638C58.6619 22.782 58.5719 22.968 58.5719 23.196C58.5719 23.352 58.6199 23.496 58.7159 23.628C58.8239 23.76 59.0339 23.88 59.3459 23.988C59.6699 24.096 60.1679 24.216 60.8399 24.348C61.6679 24.48 62.3279 24.696 62.8199 24.996C63.3119 25.284 63.6599 25.626 63.8639 26.022C64.0799 26.406 64.1879 26.814 64.1879 27.246C64.1879 27.822 64.0139 28.332 63.6659 28.776C63.3179 29.22 62.8079 29.568 62.1359 29.82C61.4759 30.06 60.6599 30.18 59.6879 30.18ZM74.5492 30.18C73.7692 30.18 73.1032 30.096 72.5512 29.928C72.0112 29.748 71.5672 29.532 71.2192 29.28C70.8832 29.028 70.6312 28.77 70.4632 28.506C70.2952 28.23 70.2052 27.99 70.1932 27.786C70.1812 27.654 70.2232 27.546 70.3192 27.462C70.4152 27.378 70.5172 27.336 70.6252 27.336H72.6772C72.7132 27.336 72.7432 27.342 72.7672 27.354C72.8032 27.366 72.8392 27.39 72.8752 27.426C73.0312 27.51 73.1872 27.618 73.3432 27.75C73.4992 27.87 73.6792 27.978 73.8832 28.074C74.0872 28.17 74.3332 28.218 74.6212 28.218C74.9572 28.218 75.2392 28.152 75.4672 28.02C75.6952 27.876 75.8092 27.678 75.8092 27.426C75.8092 27.234 75.7552 27.078 75.6472 26.958C75.5392 26.826 75.3172 26.7 74.9812 26.58C74.6572 26.46 74.1652 26.34 73.5052 26.22C72.8812 26.076 72.3352 25.89 71.8672 25.662C71.3992 25.422 71.0392 25.116 70.7872 24.744C70.5352 24.36 70.4092 23.898 70.4092 23.358C70.4092 22.878 70.5652 22.416 70.8772 21.972C71.1892 21.528 71.6452 21.168 72.2452 20.892C72.8452 20.604 73.5892 20.46 74.4772 20.46C75.1612 20.46 75.7612 20.544 76.2772 20.712C76.7932 20.868 77.2252 21.072 77.5732 21.324C77.9212 21.576 78.1852 21.834 78.3652 22.098C78.5452 22.362 78.6412 22.602 78.6532 22.818C78.6652 22.938 78.6292 23.046 78.5452 23.142C78.4612 23.226 78.3652 23.268 78.2572 23.268H76.3852C76.3372 23.268 76.2892 23.262 76.2412 23.25C76.1932 23.226 76.1512 23.202 76.1152 23.178C75.9712 23.106 75.8272 23.01 75.6832 22.89C75.5392 22.77 75.3712 22.662 75.1792 22.566C74.9872 22.47 74.7472 22.422 74.4592 22.422C74.1352 22.422 73.8832 22.494 73.7032 22.638C73.5232 22.782 73.4332 22.968 73.4332 23.196C73.4332 23.352 73.4812 23.496 73.5772 23.628C73.6852 23.76 73.8952 23.88 74.2072 23.988C74.5312 24.096 75.0292 24.216 75.7012 24.348C76.5292 24.48 77.1892 24.696 77.6812 24.996C78.1732 25.284 78.5212 25.626 78.7252 26.022C78.9412 26.406 79.0492 26.814 79.0492 27.246C79.0492 27.822 78.8752 28.332 78.5272 28.776C78.1792 29.22 77.6692 29.568 76.9972 29.82C76.3372 30.06 75.5212 30.18 74.5492 30.18ZM81.6364 33.42C81.5044 33.42 81.3964 33.372 81.3124 33.276C81.2284 33.192 81.1864 33.09 81.1864 32.97V21.09C81.1864 20.958 81.2284 20.85 81.3124 20.766C81.3964 20.682 81.5044 20.64 81.6364 20.64H83.6704C83.7904 20.64 83.8924 20.682 83.9764 20.766C84.0724 20.85 84.1204 20.958 84.1204 21.09V21.738C84.4084 21.378 84.7804 21.078 85.2364 20.838C85.6924 20.586 86.2504 20.46 86.9104 20.46C87.5104 20.46 88.0384 20.556 88.4944 20.748C88.9504 20.928 89.3404 21.198 89.6644 21.558C90.0004 21.918 90.2584 22.356 90.4384 22.872C90.6184 23.388 90.7204 23.982 90.7444 24.654C90.7564 24.894 90.7624 25.116 90.7624 25.32C90.7624 25.524 90.7564 25.746 90.7444 25.986C90.7204 26.634 90.6184 27.216 90.4384 27.732C90.2584 28.248 90.0064 28.686 89.6824 29.046C89.3584 29.406 88.9624 29.688 88.4944 29.892C88.0384 30.084 87.5104 30.18 86.9104 30.18C86.3224 30.18 85.8064 30.078 85.3624 29.874C84.9304 29.658 84.5704 29.358 84.2824 28.974V32.97C84.2824 33.09 84.2404 33.192 84.1564 33.276C84.0724 33.372 83.9644 33.42 83.8324 33.42H81.6364ZM85.9384 27.768C86.3464 27.768 86.6644 27.684 86.8924 27.516C87.1204 27.348 87.2824 27.12 87.3784 26.832C87.4864 26.544 87.5524 26.226 87.5764 25.878C87.6004 25.506 87.6004 25.134 87.5764 24.762C87.5524 24.414 87.4864 24.096 87.3784 23.808C87.2824 23.52 87.1204 23.292 86.8924 23.124C86.6644 22.956 86.3464 22.872 85.9384 22.872C85.5544 22.872 85.2424 22.962 85.0024 23.142C84.7624 23.31 84.5884 23.532 84.4804 23.808C84.3724 24.084 84.3064 24.384 84.2824 24.708C84.2704 24.936 84.2644 25.158 84.2644 25.374C84.2644 25.59 84.2704 25.818 84.2824 26.058C84.2944 26.358 84.3604 26.64 84.4804 26.904C84.6004 27.156 84.7804 27.366 85.0204 27.534C85.2604 27.69 85.5664 27.768 85.9384 27.768ZM93.5319 30C93.3999 30 93.2919 29.958 93.2079 29.874C93.1239 29.778 93.0819 29.67 93.0819 29.55V21.09C93.0819 20.958 93.1239 20.85 93.2079 20.766C93.2919 20.682 93.3999 20.64 93.5319 20.64H95.6559C95.7879 20.64 95.8959 20.682 95.9799 20.766C96.0639 20.85 96.1059 20.958 96.1059 21.09V29.55C96.1059 29.67 96.0639 29.778 95.9799 29.874C95.8959 29.958 95.7879 30 95.6559 30H93.5319ZM93.5139 19.29C93.3819 19.29 93.2739 19.248 93.1899 19.164C93.1059 19.08 93.0639 18.972 93.0639 18.84V17.22C93.0639 17.1 93.1059 16.998 93.1899 16.914C93.2739 16.818 93.3819 16.77 93.5139 16.77H95.6739C95.7939 16.77 95.8959 16.818 95.9799 16.914C96.0759 16.998 96.1239 17.1 96.1239 17.22V18.84C96.1239 18.972 96.0759 19.08 95.9799 19.164C95.8959 19.248 95.7939 19.29 95.6739 19.29H93.5139ZM99.2223 30C99.0903 30 98.9823 29.958 98.8983 29.874C98.8143 29.778 98.7723 29.67 98.7723 29.55V21.09C98.7723 20.958 98.8143 20.85 98.8983 20.766C98.9823 20.682 99.0903 20.64 99.2223 20.64H101.292C101.424 20.64 101.532 20.682 101.616 20.766C101.712 20.85 101.76 20.958 101.76 21.09V21.774C102.06 21.402 102.462 21.09 102.966 20.838C103.47 20.586 104.064 20.46 104.748 20.46C105.444 20.46 106.056 20.616 106.584 20.928C107.124 21.24 107.544 21.696 107.844 22.296C108.156 22.896 108.312 23.64 108.312 24.528V29.55C108.312 29.67 108.27 29.778 108.186 29.874C108.102 29.958 107.994 30 107.862 30H105.594C105.474 30 105.366 29.958 105.27 29.874C105.186 29.778 105.144 29.67 105.144 29.55V24.636C105.144 24.072 105.006 23.64 104.73 23.34C104.466 23.028 104.07 22.872 103.542 22.872C103.05 22.872 102.654 23.028 102.354 23.34C102.066 23.64 101.922 24.072 101.922 24.636V29.55C101.922 29.67 101.874 29.778 101.778 29.874C101.694 29.958 101.592 30 101.472 30H99.2223Z" fill="#000A12"/>
<defs>
<linearGradient id="paint0_linear_2145_969" x1="0" y1="23.6962" x2="128" y2="23.6962" gradientUnits="userSpaceOnUse">
<stop stop-color="#FFA000"/>
<stop offset="1" stop-color="#FFFF7B"/>
</linearGradient>
</defs>
</svg>
