<svg width="360" height="640" viewBox="0 0 360 640" fill="none" xmlns="http://www.w3.org/2000/svg">
<g clip-path="url(#clip0_2145_423)">
<rect x="29.3333" y="42" width="5.33333" height="2" rx="1" fill="url(#paint0_linear_2145_423)"/>
<path fill-rule="evenodd" clip-rule="evenodd" d="M34.2556 31.5616C34.8902 31.998 36.0924 33.2964 34.2376 36.2141C34.2376 36.2141 33.3457 35.7932 32.8121 34.588C32.5834 34.8463 32.3164 35.0957 32.0065 35.3333L32 35.3278C31.7012 35.0733 31.442 34.8116 31.2186 34.5446C30.6875 35.7831 29.7742 36.2141 29.7742 36.2141C27.9236 33.3031 29.1161 32.004 29.7518 31.5646C29.856 31.4926 29.9453 31.4436 30.0037 31.4145C29.9971 31.2316 29.9995 31.0499 30.0099 30.87C30.1614 28.2469 32.0065 26 32.0065 26C32.0065 26 33.764 28.3092 33.9786 30.8804C33.9933 31.0561 34.0007 31.233 33.9999 31.4105C34.0573 31.4387 34.1483 31.4878 34.2556 31.5616ZM36.9239 29.4296C37.6022 28.4575 38 27.2752 38 26C38 22.6863 35.3137 20 32 20C28.6863 20 26 22.6863 26 26C26 27.2752 26.3978 28.4575 27.0761 29.4296C26.727 29.3663 26.3674 29.3333 26 29.3333C22.6863 29.3333 20 32.0196 20 35.3333C20 38.647 22.6863 41.3333 26 41.3333C29.3137 41.3333 32 38.647 32 35.3333C32 38.647 34.6863 41.3333 38 41.3333C41.3137 41.3333 44 38.647 44 35.3333C44 32.0196 41.3137 29.3333 38 29.3333C37.6326 29.3333 37.273 29.3664 36.9239 29.4296Z" fill="url(#paint1_linear_2145_423)"/>
<path d="M121.637 37C121.52 37 121.424 36.9627 121.349 36.888C121.275 36.8133 121.237 36.7173 121.237 36.6V26.2C121.237 26.0827 121.275 25.9867 121.349 25.912C121.424 25.8373 121.52 25.8 121.637 25.8H125.989C127.365 25.8 128.448 26.12 129.237 26.76C130.037 27.3893 130.437 28.2853 130.437 29.448C130.437 30.2053 130.251 30.8453 129.877 31.368C129.515 31.8907 129.035 32.2853 128.437 32.552L130.645 36.488C130.677 36.552 130.693 36.6107 130.693 36.664C130.693 36.7493 130.656 36.8293 130.581 36.904C130.517 36.968 130.437 37 130.341 37H128.229C128.027 37 127.877 36.952 127.781 36.856C127.685 36.7493 127.616 36.6533 127.573 36.568L125.749 33.048H124.101V36.6C124.101 36.7173 124.064 36.8133 123.989 36.888C123.915 36.9627 123.819 37 123.701 37H121.637ZM124.101 30.792H125.957C126.459 30.792 126.832 30.6693 127.077 30.424C127.333 30.1787 127.461 29.8427 127.461 29.416C127.461 29 127.339 28.664 127.093 28.408C126.859 28.152 126.48 28.024 125.957 28.024H124.101V30.792ZM135.95 37.16C135.054 37.16 134.297 37.016 133.678 36.728C133.07 36.44 132.601 36.0293 132.27 35.496C131.95 34.952 131.769 34.3067 131.726 33.56C131.716 33.3467 131.71 33.1067 131.71 32.84C131.71 32.5627 131.716 32.3227 131.726 32.12C131.769 31.3627 131.961 30.7173 132.302 30.184C132.644 29.6507 133.118 29.24 133.726 28.952C134.345 28.664 135.086 28.52 135.95 28.52C136.825 28.52 137.566 28.664 138.174 28.952C138.793 29.24 139.273 29.6507 139.614 30.184C139.956 30.7173 140.148 31.3627 140.19 32.12C140.201 32.3227 140.206 32.5627 140.206 32.84C140.206 33.1067 140.201 33.3467 140.19 33.56C140.148 34.3067 139.961 34.952 139.63 35.496C139.31 36.0293 138.841 36.44 138.222 36.728C137.614 37.016 136.857 37.16 135.95 37.16ZM135.95 35.208C136.43 35.208 136.777 35.064 136.99 34.776C137.214 34.488 137.342 34.056 137.374 33.48C137.385 33.32 137.39 33.1067 137.39 32.84C137.39 32.5733 137.385 32.36 137.374 32.2C137.342 31.6347 137.214 31.208 136.99 30.92C136.777 30.6213 136.43 30.472 135.95 30.472C135.481 30.472 135.134 30.6213 134.91 30.92C134.686 31.208 134.564 31.6347 134.542 32.2C134.532 32.36 134.526 32.5733 134.526 32.84C134.526 33.1067 134.532 33.32 134.542 33.48C134.564 34.056 134.686 34.488 134.91 34.776C135.134 35.064 135.481 35.208 135.95 35.208ZM145.604 37.16C144.815 37.16 144.116 37.016 143.508 36.728C142.9 36.44 142.415 36.024 142.052 35.48C141.7 34.9253 141.508 34.264 141.476 33.496C141.465 33.3253 141.46 33.112 141.46 32.856C141.46 32.5893 141.465 32.3707 141.476 32.2C141.508 31.4213 141.7 30.76 142.052 30.216C142.404 29.6613 142.884 29.24 143.492 28.952C144.111 28.664 144.815 28.52 145.604 28.52C146.34 28.52 146.969 28.6267 147.492 28.84C148.015 29.0427 148.441 29.2987 148.772 29.608C149.103 29.9173 149.348 30.2373 149.508 30.568C149.679 30.888 149.769 31.1707 149.78 31.416C149.791 31.5227 149.753 31.6187 149.668 31.704C149.583 31.7787 149.487 31.816 149.38 31.816H147.348C147.231 31.816 147.14 31.7893 147.076 31.736C147.012 31.6827 146.953 31.6027 146.9 31.496C146.772 31.1653 146.607 30.9307 146.404 30.792C146.212 30.6533 145.961 30.584 145.652 30.584C145.225 30.584 144.895 30.7227 144.66 31C144.436 31.2773 144.313 31.704 144.292 32.28C144.281 32.7067 144.281 33.0853 144.292 33.416C144.313 34.0027 144.436 34.4293 144.66 34.696C144.895 34.9627 145.225 35.096 145.652 35.096C145.983 35.096 146.244 35.0267 146.436 34.888C146.628 34.7493 146.783 34.5147 146.9 34.184C146.953 34.0773 147.012 33.9973 147.076 33.944C147.14 33.8907 147.231 33.864 147.348 33.864H149.38C149.487 33.864 149.583 33.9067 149.668 33.992C149.753 34.0667 149.791 34.1573 149.78 34.264C149.769 34.4453 149.716 34.6587 149.62 34.904C149.524 35.1387 149.375 35.3893 149.172 35.656C148.969 35.9227 148.703 36.1733 148.372 36.408C148.052 36.632 147.663 36.8133 147.204 36.952C146.745 37.0907 146.212 37.16 145.604 37.16ZM151.617 37C151.5 37 151.404 36.9627 151.329 36.888C151.255 36.8133 151.217 36.7173 151.217 36.6V26.04C151.217 25.9227 151.255 25.8267 151.329 25.752C151.404 25.6773 151.5 25.64 151.617 25.64H153.473C153.58 25.64 153.671 25.6773 153.745 25.752C153.831 25.8267 153.873 25.9227 153.873 26.04V31.4L156.097 28.952C156.161 28.8773 156.231 28.8133 156.305 28.76C156.38 28.7067 156.487 28.68 156.625 28.68H158.769C158.865 28.68 158.945 28.7173 159.009 28.792C159.084 28.856 159.121 28.936 159.121 29.032C159.121 29.0747 159.111 29.1227 159.089 29.176C159.068 29.2293 159.036 29.272 158.993 29.304L156.113 32.408L159.393 36.392C159.479 36.4773 159.521 36.5627 159.521 36.648C159.521 36.744 159.484 36.8293 159.409 36.904C159.345 36.968 159.26 37 159.153 37H156.961C156.801 37 156.684 36.9733 156.609 36.92C156.535 36.856 156.465 36.792 156.401 36.728L153.873 33.688V36.6C153.873 36.7173 153.831 36.8133 153.745 36.888C153.671 36.9627 153.58 37 153.473 37H151.617ZM164.026 37.16C162.768 37.16 161.765 36.8187 161.018 36.136C160.272 35.4533 159.882 34.44 159.85 33.096C159.85 33.0213 159.85 32.9253 159.85 32.808C159.85 32.6907 159.85 32.6 159.85 32.536C159.882 31.6933 160.069 30.9733 160.41 30.376C160.762 29.768 161.242 29.3093 161.85 29C162.469 28.68 163.189 28.52 164.01 28.52C164.949 28.52 165.722 28.7067 166.33 29.08C166.949 29.4533 167.413 29.96 167.722 30.6C168.032 31.24 168.186 31.9707 168.186 32.792V33.176C168.186 33.2933 168.144 33.3893 168.058 33.464C167.984 33.5387 167.893 33.576 167.786 33.576H162.666C162.666 33.5867 162.666 33.6027 162.666 33.624C162.666 33.6453 162.666 33.6667 162.666 33.688C162.677 33.9973 162.73 34.28 162.826 34.536C162.922 34.792 163.072 34.9947 163.274 35.144C163.477 35.2933 163.722 35.368 164.01 35.368C164.224 35.368 164.4 35.336 164.538 35.272C164.688 35.1973 164.81 35.1173 164.906 35.032C165.002 34.936 165.077 34.856 165.13 34.792C165.226 34.6853 165.301 34.6213 165.354 34.6C165.418 34.568 165.514 34.552 165.642 34.552H167.626C167.733 34.552 167.818 34.584 167.882 34.648C167.957 34.7013 167.989 34.7813 167.978 34.888C167.968 35.0693 167.877 35.288 167.706 35.544C167.536 35.8 167.285 36.056 166.954 36.312C166.634 36.5573 166.229 36.76 165.738 36.92C165.248 37.08 164.677 37.16 164.026 37.16ZM162.666 31.992H165.37V31.96C165.37 31.6187 165.317 31.32 165.21 31.064C165.114 30.808 164.96 30.6107 164.746 30.472C164.544 30.3333 164.298 30.264 164.01 30.264C163.722 30.264 163.477 30.3333 163.274 30.472C163.082 30.6107 162.933 30.808 162.826 31.064C162.72 31.32 162.666 31.6187 162.666 31.96V31.992ZM173.927 37C173.244 37 172.652 36.8933 172.151 36.68C171.66 36.456 171.281 36.1147 171.015 35.656C170.748 35.1867 170.615 34.584 170.615 33.848V30.776H169.367C169.249 30.776 169.148 30.7387 169.063 30.664C168.988 30.5893 168.951 30.4933 168.951 30.376V29.08C168.951 28.9627 168.988 28.8667 169.063 28.792C169.148 28.7173 169.249 28.68 169.367 28.68H170.615V26.04C170.615 25.9227 170.652 25.8267 170.727 25.752C170.812 25.6773 170.908 25.64 171.015 25.64H172.871C172.988 25.64 173.084 25.6773 173.159 25.752C173.233 25.8267 173.271 25.9227 173.271 26.04V28.68H175.271C175.388 28.68 175.484 28.7173 175.559 28.792C175.633 28.8667 175.671 28.9627 175.671 29.08V30.376C175.671 30.4933 175.633 30.5893 175.559 30.664C175.484 30.7387 175.388 30.776 175.271 30.776H173.271V33.624C173.271 33.9867 173.34 34.2747 173.479 34.488C173.617 34.7013 173.852 34.808 174.183 34.808H175.415C175.532 34.808 175.628 34.8453 175.703 34.92C175.777 34.9947 175.815 35.0907 175.815 35.208V36.6C175.815 36.7173 175.777 36.8133 175.703 36.888C175.628 36.9627 175.532 37 175.415 37H173.927ZM185.314 37.16C184.3 37.16 183.431 36.9947 182.706 36.664C181.991 36.3333 181.431 35.848 181.026 35.208C180.631 34.568 180.412 33.7733 180.37 32.824C180.359 32.3867 180.354 31.9173 180.354 31.416C180.354 30.9147 180.359 30.4347 180.37 29.976C180.412 29.048 180.636 28.264 181.042 27.624C181.447 26.9733 182.012 26.4827 182.738 26.152C183.463 25.8107 184.322 25.64 185.314 25.64C186.018 25.64 186.668 25.7307 187.266 25.912C187.863 26.0827 188.386 26.3387 188.834 26.68C189.282 27.0107 189.628 27.416 189.874 27.896C190.13 28.3653 190.263 28.8987 190.274 29.496C190.284 29.592 190.252 29.672 190.178 29.736C190.114 29.8 190.034 29.832 189.938 29.832H187.778C187.639 29.832 187.532 29.8053 187.458 29.752C187.383 29.688 187.319 29.576 187.266 29.416C187.116 28.8507 186.871 28.4667 186.53 28.264C186.199 28.0507 185.788 27.944 185.298 27.944C184.711 27.944 184.247 28.1093 183.906 28.44C183.564 28.76 183.378 29.2987 183.346 30.056C183.314 30.9307 183.314 31.8267 183.346 32.744C183.378 33.5013 183.564 34.0453 183.906 34.376C184.247 34.696 184.711 34.856 185.298 34.856C185.788 34.856 186.204 34.7493 186.546 34.536C186.887 34.3227 187.127 33.9387 187.266 33.384C187.308 33.224 187.367 33.1173 187.442 33.064C187.527 33 187.639 32.968 187.778 32.968H189.938C190.034 32.968 190.114 33 190.178 33.064C190.252 33.128 190.284 33.208 190.274 33.304C190.263 33.9013 190.13 34.44 189.874 34.92C189.628 35.3893 189.282 35.7947 188.834 36.136C188.386 36.4667 187.863 36.7227 187.266 36.904C186.668 37.0747 186.018 37.16 185.314 37.16ZM192.18 37C192.063 37 191.967 36.9627 191.892 36.888C191.817 36.8133 191.78 36.7173 191.78 36.6V26.04C191.78 25.9227 191.817 25.8267 191.892 25.752C191.967 25.6773 192.063 25.64 192.18 25.64H194.228C194.345 25.64 194.441 25.6773 194.516 25.752C194.591 25.8267 194.628 25.9227 194.628 26.04V29.608C194.916 29.2773 195.268 29.016 195.684 28.824C196.111 28.6213 196.601 28.52 197.156 28.52C197.775 28.52 198.324 28.6587 198.804 28.936C199.295 29.2133 199.679 29.624 199.956 30.168C200.233 30.7013 200.372 31.3573 200.372 32.136V36.6C200.372 36.7173 200.335 36.8133 200.26 36.888C200.185 36.9627 200.089 37 199.972 37H197.908C197.801 37 197.705 36.9627 197.62 36.888C197.545 36.8133 197.508 36.7173 197.508 36.6V32.232C197.508 31.7307 197.385 31.3467 197.14 31.08C196.905 30.8027 196.553 30.664 196.084 30.664C195.647 30.664 195.295 30.8027 195.028 31.08C194.761 31.3467 194.628 31.7307 194.628 32.232V36.6C194.628 36.7173 194.591 36.8133 194.516 36.888C194.441 36.9627 194.345 37 194.228 37H192.18ZM204.682 37.16C204.106 37.16 203.589 37.0533 203.13 36.84C202.682 36.616 202.325 36.3173 202.058 35.944C201.792 35.5707 201.658 35.1493 201.658 34.68C201.658 33.9227 201.968 33.3253 202.586 32.888C203.205 32.44 204.026 32.136 205.05 31.976L207.05 31.672V31.448C207.05 31.064 206.97 30.7707 206.81 30.568C206.65 30.3653 206.357 30.264 205.93 30.264C205.632 30.264 205.386 30.3227 205.194 30.44C205.013 30.5573 204.869 30.7173 204.762 30.92C204.666 31.0587 204.533 31.128 204.362 31.128H202.57C202.453 31.128 202.362 31.096 202.298 31.032C202.234 30.9573 202.208 30.872 202.218 30.776C202.218 30.584 202.288 30.3653 202.426 30.12C202.576 29.864 202.8 29.6133 203.098 29.368C203.397 29.1227 203.781 28.92 204.25 28.76C204.72 28.6 205.285 28.52 205.946 28.52C206.64 28.52 207.232 28.6 207.722 28.76C208.213 28.92 208.608 29.144 208.906 29.432C209.216 29.72 209.445 30.0613 209.594 30.456C209.744 30.84 209.818 31.2667 209.818 31.736V36.6C209.818 36.7173 209.776 36.8133 209.69 36.888C209.616 36.9627 209.525 37 209.418 37H207.562C207.445 37 207.349 36.9627 207.274 36.888C207.2 36.8133 207.162 36.7173 207.162 36.6V36.04C207.024 36.2427 206.837 36.4293 206.602 36.6C206.368 36.7707 206.09 36.904 205.77 37C205.461 37.1067 205.098 37.16 204.682 37.16ZM205.434 35.336C205.744 35.336 206.021 35.272 206.266 35.144C206.522 35.0053 206.72 34.7973 206.858 34.52C207.008 34.232 207.082 33.8747 207.082 33.448V33.224L205.722 33.464C205.221 33.5493 204.853 33.6827 204.618 33.864C204.394 34.0347 204.282 34.2373 204.282 34.472C204.282 34.6533 204.336 34.808 204.442 34.936C204.549 35.064 204.688 35.1653 204.858 35.24C205.029 35.304 205.221 35.336 205.434 35.336ZM212.024 37C211.906 37 211.81 36.9627 211.736 36.888C211.661 36.8133 211.624 36.7173 211.624 36.6V29.08C211.624 28.9627 211.661 28.8667 211.736 28.792C211.81 28.7173 211.906 28.68 212.024 28.68H213.864C213.981 28.68 214.077 28.7173 214.152 28.792C214.226 28.8667 214.264 28.9627 214.264 29.08V29.688C214.541 29.3573 214.904 29.08 215.352 28.856C215.8 28.632 216.328 28.52 216.936 28.52C217.554 28.52 218.098 28.6587 218.568 28.936C219.048 29.2133 219.421 29.624 219.688 30.168C219.965 30.7013 220.104 31.3573 220.104 32.136V36.6C220.104 36.7173 220.061 36.8133 219.976 36.888C219.901 36.9627 219.81 37 219.704 37H217.688C217.581 37 217.485 36.9627 217.4 36.888C217.325 36.8133 217.288 36.7173 217.288 36.6V32.232C217.288 31.7307 217.165 31.3467 216.92 31.08C216.685 30.8027 216.333 30.664 215.864 30.664C215.426 30.664 215.074 30.8027 214.808 31.08C214.552 31.3467 214.424 31.7307 214.424 32.232V36.6C214.424 36.7173 214.381 36.8133 214.296 36.888C214.221 36.9627 214.13 37 214.024 37H212.024ZM225.713 37.16C224.924 37.16 224.225 37.016 223.617 36.728C223.009 36.44 222.524 36.024 222.161 35.48C221.809 34.9253 221.617 34.264 221.585 33.496C221.575 33.3253 221.569 33.112 221.569 32.856C221.569 32.5893 221.575 32.3707 221.585 32.2C221.617 31.4213 221.809 30.76 222.161 30.216C222.513 29.6613 222.993 29.24 223.601 28.952C224.22 28.664 224.924 28.52 225.713 28.52C226.449 28.52 227.079 28.6267 227.601 28.84C228.124 29.0427 228.551 29.2987 228.881 29.608C229.212 29.9173 229.457 30.2373 229.617 30.568C229.788 30.888 229.879 31.1707 229.889 31.416C229.9 31.5227 229.863 31.6187 229.777 31.704C229.692 31.7787 229.596 31.816 229.489 31.816H227.457C227.34 31.816 227.249 31.7893 227.185 31.736C227.121 31.6827 227.063 31.6027 227.009 31.496C226.881 31.1653 226.716 30.9307 226.513 30.792C226.321 30.6533 226.071 30.584 225.761 30.584C225.335 30.584 225.004 30.7227 224.769 31C224.545 31.2773 224.423 31.704 224.401 32.28C224.391 32.7067 224.391 33.0853 224.401 33.416C224.423 34.0027 224.545 34.4293 224.769 34.696C225.004 34.9627 225.335 35.096 225.761 35.096C226.092 35.096 226.353 35.0267 226.545 34.888C226.737 34.7493 226.892 34.5147 227.009 34.184C227.063 34.0773 227.121 33.9973 227.185 33.944C227.249 33.8907 227.34 33.864 227.457 33.864H229.489C229.596 33.864 229.692 33.9067 229.777 33.992C229.863 34.0667 229.9 34.1573 229.889 34.264C229.879 34.4453 229.825 34.6587 229.729 34.904C229.633 35.1387 229.484 35.3893 229.281 35.656C229.079 35.9227 228.812 36.1733 228.481 36.408C228.161 36.632 227.772 36.8133 227.313 36.952C226.855 37.0907 226.321 37.16 225.713 37.16ZM235.167 37.16C233.908 37.16 232.905 36.8187 232.159 36.136C231.412 35.4533 231.023 34.44 230.991 33.096C230.991 33.0213 230.991 32.9253 230.991 32.808C230.991 32.6907 230.991 32.6 230.991 32.536C231.023 31.6933 231.209 30.9733 231.551 30.376C231.903 29.768 232.383 29.3093 232.991 29C233.609 28.68 234.329 28.52 235.151 28.52C236.089 28.52 236.863 28.7067 237.471 29.08C238.089 29.4533 238.553 29.96 238.863 30.6C239.172 31.24 239.327 31.9707 239.327 32.792V33.176C239.327 33.2933 239.284 33.3893 239.199 33.464C239.124 33.5387 239.033 33.576 238.927 33.576H233.807C233.807 33.5867 233.807 33.6027 233.807 33.624C233.807 33.6453 233.807 33.6667 233.807 33.688C233.817 33.9973 233.871 34.28 233.967 34.536C234.063 34.792 234.212 34.9947 234.415 35.144C234.617 35.2933 234.863 35.368 235.151 35.368C235.364 35.368 235.54 35.336 235.679 35.272C235.828 35.1973 235.951 35.1173 236.047 35.032C236.143 34.936 236.217 34.856 236.271 34.792C236.367 34.6853 236.441 34.6213 236.495 34.6C236.559 34.568 236.655 34.552 236.783 34.552H238.767C238.873 34.552 238.959 34.584 239.023 34.648C239.097 34.7013 239.129 34.7813 239.119 34.888C239.108 35.0693 239.017 35.288 238.847 35.544C238.676 35.8 238.425 36.056 238.095 36.312C237.775 36.5573 237.369 36.76 236.879 36.92C236.388 37.08 235.817 37.16 235.167 37.16ZM233.807 31.992H236.511V31.96C236.511 31.6187 236.457 31.32 236.351 31.064C236.255 30.808 236.1 30.6107 235.887 30.472C235.684 30.3333 235.439 30.264 235.151 30.264C234.863 30.264 234.617 30.3333 234.415 30.472C234.223 30.6107 234.073 30.808 233.967 31.064C233.86 31.32 233.807 31.6187 233.807 31.96V31.992Z" fill="white"/>
<path d="M335.71 24.29C335.32 23.9 334.68 23.9 334.29 24.29L328 30.59L321.71 24.29C321.32 23.9 320.68 23.9 320.29 24.29C319.817 24.7633 319.9 25.32 320.29 25.71L326.59 32L320.29 38.29C319.9 38.68 319.9 39.32 320.29 39.71C320.68 40.1 321.32 40.1 321.71 39.71L328 33.41L334.29 39.71C334.68 40.1 335.32 40.1 335.71 39.71C336.1 39.32 336.1 38.68 335.71 38.29L329.41 32L335.71 25.71C336.1 25.32 336.171 24.7511 335.71 24.29Z" fill="white"/>
<rect width="360" height="88" transform="translate(0 552)" fill="#000A12" fill-opacity="0.2"/>
<g filter="url(#filter0_b_2145_423)">
<mask id="path-5-inside-1_2145_423" fill="white">
<path d="M0 552H360V576H0V552Z"/>
</mask>
<path d="M360 575H0V577H360V575Z" fill="#B6BDCC" fill-opacity="0.2" mask="url(#path-5-inside-1_2145_423)"/>
<circle cx="93" cy="564" r="4" fill="#FF5E3A"/>
<path d="M105.035 568C104.955 568 104.887 567.976 104.831 567.928C104.783 567.872 104.759 567.804 104.759 567.724V564.892L101.867 559.996C101.859 559.972 101.851 559.948 101.843 559.924C101.835 559.9 101.831 559.872 101.831 559.84C101.831 559.776 101.855 559.72 101.903 559.672C101.951 559.624 102.007 559.6 102.071 559.6H102.695C102.767 559.6 102.831 559.62 102.887 559.66C102.943 559.692 102.983 559.74 103.007 559.804L105.347 563.692L107.687 559.804C107.727 559.74 107.771 559.692 107.819 559.66C107.875 559.62 107.939 559.6 108.011 559.6H108.623C108.695 559.6 108.755 559.624 108.803 559.672C108.851 559.72 108.875 559.776 108.875 559.84C108.875 559.872 108.871 559.9 108.863 559.924C108.855 559.948 108.843 559.972 108.827 559.996L105.947 564.892V567.724C105.947 567.804 105.919 567.872 105.863 567.928C105.815 567.976 105.747 568 105.659 568H105.035ZM111.676 568.12C111.068 568.12 110.56 568.004 110.152 567.772C109.744 567.54 109.432 567.22 109.216 566.812C109 566.396 108.88 565.924 108.856 565.396C108.848 565.26 108.844 565.088 108.844 564.88C108.844 564.664 108.848 564.492 108.856 564.364C108.88 563.828 109 563.356 109.216 562.948C109.44 562.54 109.756 562.22 110.164 561.988C110.572 561.756 111.076 561.64 111.676 561.64C112.276 561.64 112.78 561.756 113.188 561.988C113.596 562.22 113.908 562.54 114.124 562.948C114.348 563.356 114.472 563.828 114.496 564.364C114.504 564.492 114.508 564.664 114.508 564.88C114.508 565.088 114.504 565.26 114.496 565.396C114.472 565.924 114.352 566.396 114.136 566.812C113.92 567.22 113.608 567.54 113.2 567.772C112.792 568.004 112.284 568.12 111.676 568.12ZM111.676 567.196C112.172 567.196 112.568 567.04 112.864 566.728C113.16 566.408 113.32 565.944 113.344 565.336C113.352 565.216 113.356 565.064 113.356 564.88C113.356 564.696 113.352 564.544 113.344 564.424C113.32 563.816 113.16 563.356 112.864 563.044C112.568 562.724 112.172 562.564 111.676 562.564C111.18 562.564 110.78 562.724 110.476 563.044C110.18 563.356 110.024 563.816 110.008 564.424C110 564.544 109.996 564.696 109.996 564.88C109.996 565.064 110 565.216 110.008 565.336C110.024 565.944 110.18 566.408 110.476 566.728C110.78 567.04 111.18 567.196 111.676 567.196ZM118.339 568.12C117.827 568.12 117.391 568.008 117.031 567.784C116.679 567.552 116.411 567.232 116.227 566.824C116.043 566.416 115.951 565.948 115.951 565.42V562.036C115.951 561.956 115.975 561.892 116.023 561.844C116.079 561.788 116.147 561.76 116.227 561.76H116.827C116.907 561.76 116.971 561.788 117.019 561.844C117.075 561.892 117.103 561.956 117.103 562.036V565.36C117.103 566.552 117.623 567.148 118.663 567.148C119.159 567.148 119.555 566.992 119.851 566.68C120.155 566.36 120.307 565.92 120.307 565.36V562.036C120.307 561.956 120.331 561.892 120.379 561.844C120.435 561.788 120.503 561.76 120.583 561.76H121.183C121.263 561.76 121.327 561.788 121.375 561.844C121.423 561.892 121.447 561.956 121.447 562.036V567.724C121.447 567.804 121.423 567.872 121.375 567.928C121.327 567.976 121.263 568 121.183 568H120.619C120.539 568 120.471 567.976 120.415 567.928C120.367 567.872 120.343 567.804 120.343 567.724V567.196C120.127 567.476 119.863 567.7 119.551 567.868C119.247 568.036 118.843 568.12 118.339 568.12ZM123.506 568C123.426 568 123.358 567.976 123.302 567.928C123.254 567.872 123.23 567.804 123.23 567.724V562.048C123.23 561.968 123.254 561.9 123.302 561.844C123.358 561.788 123.426 561.76 123.506 561.76H124.058C124.138 561.76 124.206 561.788 124.262 561.844C124.318 561.9 124.346 561.968 124.346 562.048V562.576C124.506 562.304 124.726 562.1 125.006 561.964C125.286 561.828 125.626 561.76 126.026 561.76H126.494C126.574 561.76 126.638 561.788 126.686 561.844C126.742 561.892 126.77 561.956 126.77 562.036V562.528C126.77 562.608 126.742 562.672 126.686 562.72C126.638 562.768 126.574 562.792 126.494 562.792H125.774C125.342 562.792 125.002 562.92 124.754 563.176C124.506 563.424 124.382 563.764 124.382 564.196V567.724C124.382 567.804 124.354 567.872 124.298 567.928C124.242 567.976 124.174 568 124.094 568H123.506ZM132.609 568.12C132.161 568.12 131.777 568.064 131.457 567.952C131.137 567.84 130.877 567.704 130.677 567.544C130.477 567.384 130.325 567.224 130.221 567.064C130.125 566.904 130.073 566.776 130.065 566.68C130.057 566.592 130.085 566.524 130.149 566.476C130.213 566.428 130.277 566.404 130.341 566.404H130.881C130.921 566.404 130.953 566.412 130.977 566.428C131.009 566.436 131.049 566.468 131.097 566.524C131.201 566.636 131.317 566.748 131.445 566.86C131.573 566.972 131.729 567.064 131.913 567.136C132.105 567.208 132.341 567.244 132.621 567.244C133.029 567.244 133.365 567.168 133.629 567.016C133.893 566.856 134.025 566.624 134.025 566.32C134.025 566.12 133.969 565.96 133.857 565.84C133.753 565.72 133.561 565.612 133.281 565.516C133.009 565.42 132.633 565.32 132.153 565.216C131.673 565.104 131.293 564.968 131.013 564.808C130.733 564.64 130.533 564.444 130.413 564.22C130.293 563.988 130.233 563.728 130.233 563.44C130.233 563.144 130.321 562.86 130.497 562.588C130.673 562.308 130.929 562.08 131.265 561.904C131.609 561.728 132.037 561.64 132.549 561.64C132.965 561.64 133.321 561.692 133.617 561.796C133.913 561.9 134.157 562.032 134.349 562.192C134.541 562.344 134.685 562.496 134.781 562.648C134.877 562.8 134.929 562.928 134.937 563.032C134.945 563.112 134.921 563.18 134.865 563.236C134.809 563.284 134.745 563.308 134.673 563.308H134.169C134.113 563.308 134.065 563.296 134.025 563.272C133.993 563.248 133.961 563.22 133.929 563.188C133.849 563.084 133.753 562.98 133.641 562.876C133.537 562.772 133.397 562.688 133.221 562.624C133.053 562.552 132.829 562.516 132.549 562.516C132.149 562.516 131.849 562.6 131.649 562.768C131.449 562.936 131.349 563.148 131.349 563.404C131.349 563.556 131.393 563.692 131.481 563.812C131.569 563.932 131.737 564.04 131.985 564.136C132.233 564.232 132.601 564.336 133.089 564.448C133.617 564.552 134.033 564.692 134.337 564.868C134.641 565.044 134.857 565.248 134.985 565.48C135.113 565.712 135.177 565.98 135.177 566.284C135.177 566.62 135.081 566.928 134.889 567.208C134.697 567.488 134.409 567.712 134.025 567.88C133.641 568.04 133.169 568.12 132.609 568.12ZM136.854 570.28C136.774 570.28 136.706 570.252 136.65 570.196C136.602 570.148 136.578 570.084 136.578 570.004V562.036C136.578 561.956 136.602 561.892 136.65 561.844C136.706 561.788 136.774 561.76 136.854 561.76H137.406C137.486 561.76 137.55 561.788 137.598 561.844C137.654 561.892 137.682 561.956 137.682 562.036V562.564C137.874 562.3 138.13 562.08 138.45 561.904C138.77 561.728 139.17 561.64 139.65 561.64C140.098 561.64 140.478 561.716 140.79 561.868C141.11 562.02 141.37 562.228 141.57 562.492C141.778 562.756 141.934 563.056 142.038 563.392C142.142 563.728 142.202 564.088 142.218 564.472C142.226 564.6 142.23 564.736 142.23 564.88C142.23 565.024 142.226 565.16 142.218 565.288C142.202 565.664 142.142 566.024 142.038 566.368C141.934 566.704 141.778 567.004 141.57 567.268C141.37 567.524 141.11 567.732 140.79 567.892C140.478 568.044 140.098 568.12 139.65 568.12C139.186 568.12 138.794 568.036 138.474 567.868C138.162 567.692 137.906 567.476 137.706 567.22V570.004C137.706 570.084 137.682 570.148 137.634 570.196C137.586 570.252 137.522 570.28 137.442 570.28H136.854ZM139.398 567.148C139.814 567.148 140.138 567.06 140.37 566.884C140.61 566.7 140.782 566.464 140.886 566.176C140.99 565.88 141.05 565.564 141.066 565.228C141.074 564.996 141.074 564.764 141.066 564.532C141.05 564.196 140.99 563.884 140.886 563.596C140.782 563.3 140.61 563.064 140.37 562.888C140.138 562.704 139.814 562.612 139.398 562.612C139.006 562.612 138.686 562.704 138.438 562.888C138.198 563.072 138.018 563.308 137.898 563.596C137.786 563.876 137.722 564.164 137.706 564.46C137.698 564.588 137.694 564.74 137.694 564.916C137.694 565.092 137.698 565.248 137.706 565.384C137.714 565.664 137.778 565.94 137.898 566.212C138.026 566.484 138.214 566.708 138.462 566.884C138.71 567.06 139.022 567.148 139.398 567.148ZM143.99 568C143.91 568 143.842 567.976 143.786 567.928C143.738 567.872 143.714 567.804 143.714 567.724V562.036C143.714 561.956 143.738 561.892 143.786 561.844C143.842 561.788 143.91 561.76 143.99 561.76H144.566C144.646 561.76 144.71 561.788 144.758 561.844C144.814 561.892 144.842 561.956 144.842 562.036V567.724C144.842 567.804 144.814 567.872 144.758 567.928C144.71 567.976 144.646 568 144.566 568H143.99ZM143.894 560.596C143.814 560.596 143.746 560.572 143.69 560.524C143.642 560.468 143.618 560.4 143.618 560.32V559.672C143.618 559.592 143.642 559.524 143.69 559.468C143.746 559.412 143.814 559.384 143.894 559.384H144.65C144.73 559.384 144.798 559.412 144.854 559.468C144.91 559.524 144.938 559.592 144.938 559.672V560.32C144.938 560.4 144.91 560.468 144.854 560.524C144.798 560.572 144.73 560.596 144.65 560.596H143.894ZM146.896 568C146.816 568 146.748 567.976 146.692 567.928C146.644 567.872 146.62 567.804 146.62 567.724V562.036C146.62 561.956 146.644 561.892 146.692 561.844C146.748 561.788 146.816 561.76 146.896 561.76H147.46C147.54 561.76 147.604 561.788 147.652 561.844C147.708 561.892 147.736 561.956 147.736 562.036V562.564C147.944 562.292 148.204 562.072 148.516 561.904C148.836 561.728 149.244 561.64 149.74 561.64C150.26 561.64 150.7 561.756 151.06 561.988C151.428 562.212 151.704 562.528 151.888 562.936C152.08 563.336 152.176 563.804 152.176 564.34V567.724C152.176 567.804 152.148 567.872 152.092 567.928C152.044 567.976 151.98 568 151.9 568H151.3C151.22 568 151.152 567.976 151.096 567.928C151.048 567.872 151.024 567.804 151.024 567.724V564.4C151.024 563.84 150.888 563.404 150.616 563.092C150.344 562.772 149.944 562.612 149.416 562.612C148.92 562.612 148.52 562.772 148.216 563.092C147.92 563.404 147.772 563.84 147.772 564.4V567.724C147.772 567.804 147.744 567.872 147.688 567.928C147.64 567.976 147.576 568 147.496 568H146.896ZM159.335 568.12C158.503 568.12 157.843 567.868 157.355 567.364C156.867 566.852 156.599 566.156 156.551 565.276C156.543 565.172 156.539 565.04 156.539 564.88C156.539 564.712 156.543 564.576 156.551 564.472C156.583 563.904 156.715 563.408 156.947 562.984C157.179 562.552 157.495 562.22 157.895 561.988C158.303 561.756 158.779 561.64 159.323 561.64C159.931 561.64 160.439 561.768 160.847 562.024C161.263 562.28 161.579 562.644 161.795 563.116C162.011 563.588 162.119 564.14 162.119 564.772V564.976C162.119 565.064 162.091 565.132 162.035 565.18C161.987 565.228 161.923 565.252 161.843 565.252H157.691C157.691 565.26 157.691 565.276 157.691 565.3C157.691 565.324 157.691 565.344 157.691 565.36C157.707 565.688 157.779 565.996 157.907 566.284C158.035 566.564 158.219 566.792 158.459 566.968C158.707 567.144 158.995 567.232 159.323 567.232C159.611 567.232 159.851 567.188 160.043 567.1C160.235 567.012 160.391 566.916 160.511 566.812C160.631 566.7 160.711 566.612 160.751 566.548C160.823 566.452 160.879 566.396 160.919 566.38C160.959 566.356 161.023 566.344 161.111 566.344H161.699C161.771 566.344 161.831 566.368 161.879 566.416C161.935 566.456 161.959 566.516 161.951 566.596C161.943 566.716 161.879 566.864 161.759 567.04C161.639 567.208 161.467 567.376 161.243 567.544C161.027 567.712 160.755 567.852 160.427 567.964C160.107 568.068 159.743 568.12 159.335 568.12ZM157.691 564.424H160.979V564.388C160.979 564.028 160.911 563.708 160.775 563.428C160.647 563.148 160.459 562.928 160.211 562.768C159.963 562.6 159.667 562.516 159.323 562.516C158.979 562.516 158.683 562.6 158.435 562.768C158.195 562.928 158.011 563.148 157.883 563.428C157.755 563.708 157.691 564.028 157.691 564.388V564.424ZM163.137 568C163.073 568 163.013 567.976 162.957 567.928C162.909 567.88 162.885 567.82 162.885 567.748C162.885 567.724 162.889 567.696 162.897 567.664C162.913 567.624 162.937 567.58 162.969 567.532L165.057 564.808L163.101 562.228C163.069 562.18 163.045 562.14 163.029 562.108C163.021 562.076 163.017 562.044 163.017 562.012C163.017 561.94 163.041 561.88 163.089 561.832C163.137 561.784 163.197 561.76 163.269 561.76H163.881C163.969 561.76 164.037 561.784 164.085 561.832C164.133 561.872 164.169 561.912 164.193 561.952L165.789 564.028L167.385 561.964C167.417 561.924 167.453 561.88 167.493 561.832C167.541 561.784 167.609 561.76 167.697 561.76H168.285C168.357 561.76 168.417 561.784 168.465 561.832C168.513 561.88 168.537 561.94 168.537 562.012C168.537 562.044 168.529 562.076 168.513 562.108C168.505 562.14 168.485 562.18 168.453 562.228L166.473 564.832L168.561 567.532C168.593 567.58 168.613 567.62 168.621 567.652C168.637 567.684 168.645 567.716 168.645 567.748C168.645 567.82 168.621 567.88 168.573 567.928C168.525 567.976 168.465 568 168.393 568H167.757C167.677 568 167.613 567.98 167.565 567.94C167.517 567.9 167.477 567.86 167.445 567.82L165.765 565.624L164.061 567.82C164.029 567.852 163.989 567.892 163.941 567.94C163.901 567.98 163.837 568 163.749 568H163.137ZM170.182 570.28C170.102 570.28 170.034 570.252 169.978 570.196C169.93 570.148 169.906 570.084 169.906 570.004V562.036C169.906 561.956 169.93 561.892 169.978 561.844C170.034 561.788 170.102 561.76 170.182 561.76H170.734C170.814 561.76 170.878 561.788 170.926 561.844C170.982 561.892 171.01 561.956 171.01 562.036V562.564C171.202 562.3 171.458 562.08 171.778 561.904C172.098 561.728 172.498 561.64 172.978 561.64C173.426 561.64 173.806 561.716 174.118 561.868C174.438 562.02 174.698 562.228 174.898 562.492C175.106 562.756 175.262 563.056 175.366 563.392C175.47 563.728 175.53 564.088 175.546 564.472C175.554 564.6 175.558 564.736 175.558 564.88C175.558 565.024 175.554 565.16 175.546 565.288C175.53 565.664 175.47 566.024 175.366 566.368C175.262 566.704 175.106 567.004 174.898 567.268C174.698 567.524 174.438 567.732 174.118 567.892C173.806 568.044 173.426 568.12 172.978 568.12C172.514 568.12 172.122 568.036 171.802 567.868C171.49 567.692 171.234 567.476 171.034 567.22V570.004C171.034 570.084 171.01 570.148 170.962 570.196C170.914 570.252 170.85 570.28 170.77 570.28H170.182ZM172.726 567.148C173.142 567.148 173.466 567.06 173.698 566.884C173.938 566.7 174.11 566.464 174.214 566.176C174.318 565.88 174.378 565.564 174.394 565.228C174.402 564.996 174.402 564.764 174.394 564.532C174.378 564.196 174.318 563.884 174.214 563.596C174.11 563.3 173.938 563.064 173.698 562.888C173.466 562.704 173.142 562.612 172.726 562.612C172.334 562.612 172.014 562.704 171.766 562.888C171.526 563.072 171.346 563.308 171.226 563.596C171.114 563.876 171.05 564.164 171.034 564.46C171.026 564.588 171.022 564.74 171.022 564.916C171.022 565.092 171.026 565.248 171.034 565.384C171.042 565.664 171.106 565.94 171.226 566.212C171.354 566.484 171.542 566.708 171.79 566.884C172.038 567.06 172.35 567.148 172.726 567.148ZM177.318 568C177.238 568 177.17 567.976 177.114 567.928C177.066 567.872 177.042 567.804 177.042 567.724V562.036C177.042 561.956 177.066 561.892 177.114 561.844C177.17 561.788 177.238 561.76 177.318 561.76H177.894C177.974 561.76 178.038 561.788 178.086 561.844C178.142 561.892 178.17 561.956 178.17 562.036V567.724C178.17 567.804 178.142 567.872 178.086 567.928C178.038 567.976 177.974 568 177.894 568H177.318ZM177.222 560.596C177.142 560.596 177.074 560.572 177.018 560.524C176.97 560.468 176.946 560.4 176.946 560.32V559.672C176.946 559.592 176.97 559.524 177.018 559.468C177.074 559.412 177.142 559.384 177.222 559.384H177.978C178.058 559.384 178.126 559.412 178.182 559.468C178.238 559.524 178.266 559.592 178.266 559.672V560.32C178.266 560.4 178.238 560.468 178.182 560.524C178.126 560.572 178.058 560.596 177.978 560.596H177.222ZM180.225 568C180.145 568 180.077 567.976 180.021 567.928C179.973 567.872 179.949 567.804 179.949 567.724V562.048C179.949 561.968 179.973 561.9 180.021 561.844C180.077 561.788 180.145 561.76 180.225 561.76H180.777C180.857 561.76 180.925 561.788 180.981 561.844C181.037 561.9 181.065 561.968 181.065 562.048V562.576C181.225 562.304 181.445 562.1 181.725 561.964C182.005 561.828 182.345 561.76 182.745 561.76H183.213C183.293 561.76 183.357 561.788 183.405 561.844C183.461 561.892 183.489 561.956 183.489 562.036V562.528C183.489 562.608 183.461 562.672 183.405 562.72C183.357 562.768 183.293 562.792 183.213 562.792H182.493C182.061 562.792 181.721 562.92 181.473 563.176C181.225 563.424 181.101 563.764 181.101 564.196V567.724C181.101 567.804 181.073 567.872 181.017 567.928C180.961 567.976 180.893 568 180.813 568H180.225ZM186.886 568.12C186.054 568.12 185.394 567.868 184.906 567.364C184.418 566.852 184.15 566.156 184.102 565.276C184.094 565.172 184.09 565.04 184.09 564.88C184.09 564.712 184.094 564.576 184.102 564.472C184.134 563.904 184.266 563.408 184.498 562.984C184.73 562.552 185.046 562.22 185.446 561.988C185.854 561.756 186.33 561.64 186.874 561.64C187.482 561.64 187.99 561.768 188.398 562.024C188.814 562.28 189.13 562.644 189.346 563.116C189.562 563.588 189.67 564.14 189.67 564.772V564.976C189.67 565.064 189.642 565.132 189.586 565.18C189.538 565.228 189.474 565.252 189.394 565.252H185.242C185.242 565.26 185.242 565.276 185.242 565.3C185.242 565.324 185.242 565.344 185.242 565.36C185.258 565.688 185.33 565.996 185.458 566.284C185.586 566.564 185.77 566.792 186.01 566.968C186.258 567.144 186.546 567.232 186.874 567.232C187.162 567.232 187.402 567.188 187.594 567.1C187.786 567.012 187.942 566.916 188.062 566.812C188.182 566.7 188.262 566.612 188.302 566.548C188.374 566.452 188.43 566.396 188.47 566.38C188.51 566.356 188.574 566.344 188.662 566.344H189.25C189.322 566.344 189.382 566.368 189.43 566.416C189.486 566.456 189.51 566.516 189.502 566.596C189.494 566.716 189.43 566.864 189.31 567.04C189.19 567.208 189.018 567.376 188.794 567.544C188.578 567.712 188.306 567.852 187.978 567.964C187.658 568.068 187.294 568.12 186.886 568.12ZM185.242 564.424H188.53V564.388C188.53 564.028 188.462 563.708 188.326 563.428C188.198 563.148 188.01 562.928 187.762 562.768C187.514 562.6 187.218 562.516 186.874 562.516C186.53 562.516 186.234 562.6 185.986 562.768C185.746 562.928 185.562 563.148 185.434 563.428C185.306 563.708 185.242 564.028 185.242 564.388V564.424ZM193.265 568.12C192.817 568.12 192.433 568.064 192.113 567.952C191.793 567.84 191.533 567.704 191.333 567.544C191.133 567.384 190.981 567.224 190.877 567.064C190.781 566.904 190.729 566.776 190.721 566.68C190.713 566.592 190.741 566.524 190.805 566.476C190.869 566.428 190.933 566.404 190.997 566.404H191.537C191.577 566.404 191.609 566.412 191.633 566.428C191.665 566.436 191.705 566.468 191.753 566.524C191.857 566.636 191.973 566.748 192.101 566.86C192.229 566.972 192.385 567.064 192.569 567.136C192.761 567.208 192.997 567.244 193.277 567.244C193.685 567.244 194.021 567.168 194.285 567.016C194.549 566.856 194.681 566.624 194.681 566.32C194.681 566.12 194.625 565.96 194.513 565.84C194.409 565.72 194.217 565.612 193.937 565.516C193.665 565.42 193.289 565.32 192.809 565.216C192.329 565.104 191.949 564.968 191.669 564.808C191.389 564.64 191.189 564.444 191.069 564.22C190.949 563.988 190.889 563.728 190.889 563.44C190.889 563.144 190.977 562.86 191.153 562.588C191.329 562.308 191.585 562.08 191.921 561.904C192.265 561.728 192.693 561.64 193.205 561.64C193.621 561.64 193.977 561.692 194.273 561.796C194.569 561.9 194.813 562.032 195.005 562.192C195.197 562.344 195.341 562.496 195.437 562.648C195.533 562.8 195.585 562.928 195.593 563.032C195.601 563.112 195.577 563.18 195.521 563.236C195.465 563.284 195.401 563.308 195.329 563.308H194.825C194.769 563.308 194.721 563.296 194.681 563.272C194.649 563.248 194.617 563.22 194.585 563.188C194.505 563.084 194.409 562.98 194.297 562.876C194.193 562.772 194.053 562.688 193.877 562.624C193.709 562.552 193.485 562.516 193.205 562.516C192.805 562.516 192.505 562.6 192.305 562.768C192.105 562.936 192.005 563.148 192.005 563.404C192.005 563.556 192.049 563.692 192.137 563.812C192.225 563.932 192.393 564.04 192.641 564.136C192.889 564.232 193.257 564.336 193.745 564.448C194.273 564.552 194.689 564.692 194.993 564.868C195.297 565.044 195.513 565.248 195.641 565.48C195.769 565.712 195.833 565.98 195.833 566.284C195.833 566.62 195.737 566.928 195.545 567.208C195.353 567.488 195.065 567.712 194.681 567.88C194.297 568.04 193.825 568.12 193.265 568.12ZM200.439 568C200.359 568 200.291 567.976 200.235 567.928C200.187 567.872 200.163 567.804 200.163 567.724V562.036C200.163 561.956 200.187 561.892 200.235 561.844C200.291 561.788 200.359 561.76 200.439 561.76H201.015C201.095 561.76 201.159 561.788 201.207 561.844C201.263 561.892 201.291 561.956 201.291 562.036V567.724C201.291 567.804 201.263 567.872 201.207 567.928C201.159 567.976 201.095 568 201.015 568H200.439ZM200.343 560.596C200.263 560.596 200.195 560.572 200.139 560.524C200.091 560.468 200.067 560.4 200.067 560.32V559.672C200.067 559.592 200.091 559.524 200.139 559.468C200.195 559.412 200.263 559.384 200.343 559.384H201.099C201.179 559.384 201.247 559.412 201.303 559.468C201.359 559.524 201.387 559.592 201.387 559.672V560.32C201.387 560.4 201.359 560.468 201.303 560.524C201.247 560.572 201.179 560.596 201.099 560.596H200.343ZM203.346 568C203.266 568 203.198 567.976 203.142 567.928C203.094 567.872 203.07 567.804 203.07 567.724V562.036C203.07 561.956 203.094 561.892 203.142 561.844C203.198 561.788 203.266 561.76 203.346 561.76H203.91C203.99 561.76 204.054 561.788 204.102 561.844C204.158 561.892 204.186 561.956 204.186 562.036V562.564C204.394 562.292 204.654 562.072 204.966 561.904C205.286 561.728 205.694 561.64 206.19 561.64C206.71 561.64 207.15 561.756 207.51 561.988C207.878 562.212 208.154 562.528 208.338 562.936C208.53 563.336 208.626 563.804 208.626 564.34V567.724C208.626 567.804 208.598 567.872 208.542 567.928C208.494 567.976 208.43 568 208.35 568H207.75C207.67 568 207.602 567.976 207.546 567.928C207.498 567.872 207.474 567.804 207.474 567.724V564.4C207.474 563.84 207.338 563.404 207.066 563.092C206.794 562.772 206.394 562.612 205.866 562.612C205.37 562.612 204.97 562.772 204.666 563.092C204.37 563.404 204.222 563.84 204.222 564.4V567.724C204.222 567.804 204.194 567.872 204.138 567.928C204.09 567.976 204.026 568 203.946 568H203.346ZM210.563 563.8C210.483 563.8 210.415 563.776 210.359 563.728C210.311 563.672 210.287 563.604 210.287 563.524V562.684C210.287 562.604 210.311 562.54 210.359 562.492C210.415 562.436 210.483 562.408 210.563 562.408H211.427C211.507 562.408 211.571 562.436 211.619 562.492C211.675 562.54 211.703 562.604 211.703 562.684V563.524C211.703 563.604 211.675 563.672 211.619 563.728C211.571 563.776 211.507 563.8 211.427 563.8H210.563ZM210.563 568C210.483 568 210.415 567.976 210.359 567.928C210.311 567.872 210.287 567.804 210.287 567.724V566.884C210.287 566.804 210.311 566.74 210.359 566.692C210.415 566.636 210.483 566.608 210.563 566.608H211.427C211.507 566.608 211.571 566.636 211.619 566.692C211.675 566.74 211.703 566.804 211.703 566.884V567.724C211.703 567.804 211.675 567.872 211.619 567.928C211.571 567.976 211.507 568 211.427 568H210.563Z" fill="#B6BDCC"/>
<path d="M217.804 568C217.716 568 217.64 567.972 217.576 567.916C217.52 567.852 217.492 567.78 217.492 567.7V566.848C217.492 566.792 217.508 566.708 217.54 566.596C217.572 566.476 217.656 566.364 217.792 566.26L219.04 565.036C219.68 564.548 220.204 564.136 220.612 563.8C221.028 563.456 221.336 563.152 221.536 562.888C221.736 562.624 221.836 562.376 221.836 562.144C221.836 561.872 221.764 561.648 221.62 561.472C221.484 561.288 221.244 561.196 220.9 561.196C220.668 561.196 220.476 561.248 220.324 561.352C220.172 561.448 220.052 561.576 219.964 561.736C219.884 561.896 219.828 562.06 219.796 562.228C219.764 562.332 219.708 562.404 219.628 562.444C219.556 562.484 219.476 562.504 219.388 562.504H217.888C217.816 562.504 217.756 562.48 217.708 562.432C217.66 562.384 217.636 562.324 217.636 562.252C217.644 561.868 217.724 561.508 217.876 561.172C218.036 560.828 218.256 560.528 218.536 560.272C218.824 560.016 219.164 559.816 219.556 559.672C219.956 559.52 220.404 559.444 220.9 559.444C221.58 559.444 222.156 559.556 222.628 559.78C223.108 559.996 223.472 560.3 223.72 560.692C223.968 561.076 224.092 561.528 224.092 562.048C224.092 562.44 224.004 562.808 223.828 563.152C223.66 563.488 223.416 563.812 223.096 564.124C222.784 564.428 222.412 564.744 221.98 565.072L220.876 566.188H223.96C224.048 566.188 224.12 566.216 224.176 566.272C224.24 566.328 224.272 566.4 224.272 566.488V567.7C224.272 567.78 224.24 567.852 224.176 567.916C224.12 567.972 224.048 568 223.96 568H217.804ZM228.705 568.12C228.089 568.12 227.557 568.048 227.109 567.904C226.669 567.752 226.309 567.56 226.029 567.328C225.749 567.088 225.541 566.836 225.405 566.572C225.269 566.3 225.197 566.04 225.189 565.792C225.189 565.72 225.213 565.66 225.261 565.612C225.317 565.564 225.381 565.54 225.453 565.54H227.025C227.113 565.54 227.185 565.56 227.241 565.6C227.297 565.632 227.349 565.688 227.397 565.768C227.461 565.92 227.553 566.044 227.673 566.14C227.801 566.236 227.953 566.304 228.129 566.344C228.305 566.376 228.497 566.392 228.705 566.392C229.113 566.392 229.429 566.3 229.653 566.116C229.885 565.924 230.001 565.664 230.001 565.336C230.001 564.992 229.893 564.748 229.677 564.604C229.461 564.452 229.153 564.376 228.753 564.376H227.421C227.333 564.376 227.261 564.348 227.205 564.292C227.149 564.236 227.121 564.164 227.121 564.076V563.404C227.121 563.308 227.141 563.224 227.181 563.152C227.221 563.08 227.265 563.028 227.313 562.996L229.281 561.328H225.945C225.865 561.328 225.793 561.3 225.729 561.244C225.673 561.188 225.645 561.116 225.645 561.028V559.9C225.645 559.812 225.673 559.74 225.729 559.684C225.793 559.628 225.865 559.6 225.945 559.6H231.465C231.553 559.6 231.625 559.628 231.681 559.684C231.745 559.74 231.777 559.812 231.777 559.9V560.92C231.777 561.008 231.757 561.088 231.717 561.16C231.677 561.224 231.633 561.276 231.585 561.316L229.761 563.008L229.845 563.032C230.309 563.088 230.717 563.208 231.069 563.392C231.429 563.576 231.713 563.84 231.921 564.184C232.129 564.52 232.233 564.948 232.233 565.468C232.233 566.012 232.077 566.484 231.765 566.884C231.461 567.276 231.045 567.58 230.517 567.796C229.989 568.012 229.385 568.12 228.705 568.12ZM233.723 568C233.635 568 233.563 567.972 233.507 567.916C233.451 567.852 233.423 567.78 233.423 567.7V559.78C233.423 559.692 233.451 559.62 233.507 559.564C233.563 559.508 233.635 559.48 233.723 559.48H235.259C235.347 559.48 235.419 559.508 235.475 559.564C235.531 559.62 235.559 559.692 235.559 559.78V562.456C235.775 562.208 236.039 562.012 236.351 561.868C236.671 561.716 237.039 561.64 237.455 561.64C237.919 561.64 238.331 561.744 238.691 561.952C239.059 562.16 239.347 562.464 239.555 562.864C239.763 563.264 239.867 563.76 239.867 564.352V567.7C239.867 567.78 239.839 567.852 239.783 567.916C239.727 567.972 239.655 568 239.567 568H238.019C237.939 568 237.867 567.972 237.803 567.916C237.747 567.852 237.719 567.78 237.719 567.7V564.424C237.719 564.048 237.627 563.76 237.443 563.56C237.267 563.352 237.007 563.248 236.663 563.248C236.327 563.248 236.059 563.352 235.859 563.56C235.659 563.76 235.559 564.048 235.559 564.424V567.7C235.559 567.78 235.531 567.852 235.475 567.916C235.419 567.972 235.347 568 235.259 568H233.723ZM246.974 568.12C246.358 568.12 245.826 568.048 245.378 567.904C244.938 567.752 244.578 567.56 244.298 567.328C244.018 567.088 243.81 566.836 243.674 566.572C243.538 566.3 243.466 566.04 243.458 565.792C243.458 565.72 243.482 565.66 243.53 565.612C243.586 565.564 243.65 565.54 243.722 565.54H245.294C245.382 565.54 245.454 565.56 245.51 565.6C245.566 565.632 245.618 565.688 245.666 565.768C245.73 565.92 245.822 566.044 245.942 566.14C246.07 566.236 246.222 566.304 246.398 566.344C246.574 566.376 246.766 566.392 246.974 566.392C247.382 566.392 247.698 566.3 247.922 566.116C248.154 565.924 248.27 565.664 248.27 565.336C248.27 564.992 248.162 564.748 247.946 564.604C247.73 564.452 247.422 564.376 247.022 564.376H245.69C245.602 564.376 245.53 564.348 245.474 564.292C245.418 564.236 245.39 564.164 245.39 564.076V563.404C245.39 563.308 245.41 563.224 245.45 563.152C245.49 563.08 245.534 563.028 245.582 562.996L247.55 561.328H244.214C244.134 561.328 244.062 561.3 243.998 561.244C243.942 561.188 243.914 561.116 243.914 561.028V559.9C243.914 559.812 243.942 559.74 243.998 559.684C244.062 559.628 244.134 559.6 244.214 559.6H249.734C249.822 559.6 249.894 559.628 249.95 559.684C250.014 559.74 250.046 559.812 250.046 559.9V560.92C250.046 561.008 250.026 561.088 249.986 561.16C249.946 561.224 249.902 561.276 249.854 561.316L248.03 563.008L248.114 563.032C248.578 563.088 248.986 563.208 249.338 563.392C249.698 563.576 249.982 563.84 250.19 564.184C250.398 564.52 250.502 564.948 250.502 565.468C250.502 566.012 250.346 566.484 250.034 566.884C249.73 567.276 249.314 567.58 248.786 567.796C248.258 568.012 247.654 568.12 246.974 568.12ZM255.052 568.12C254.476 568.12 253.976 568.04 253.552 567.88C253.136 567.712 252.788 567.484 252.508 567.196C252.228 566.908 252.016 566.572 251.872 566.188C251.728 565.804 251.644 565.392 251.62 564.952C251.612 564.736 251.604 564.492 251.596 564.22C251.596 563.94 251.596 563.66 251.596 563.38C251.604 563.092 251.612 562.836 251.62 562.612C251.644 562.172 251.728 561.764 251.872 561.388C252.024 561.004 252.24 560.672 252.52 560.392C252.808 560.104 253.16 559.88 253.576 559.72C254 559.56 254.492 559.48 255.052 559.48C255.62 559.48 256.112 559.56 256.528 559.72C256.952 559.88 257.304 560.104 257.584 560.392C257.864 560.672 258.08 561.004 258.232 561.388C258.384 561.764 258.472 562.172 258.496 562.612C258.504 562.836 258.508 563.092 258.508 563.38C258.516 563.66 258.516 563.94 258.508 564.22C258.508 564.492 258.504 564.736 258.496 564.952C258.472 565.392 258.384 565.804 258.232 566.188C258.088 566.572 257.876 566.908 257.596 567.196C257.324 567.484 256.976 567.712 256.552 567.88C256.136 568.04 255.636 568.12 255.052 568.12ZM255.052 566.38C255.468 566.38 255.768 566.248 255.952 565.984C256.144 565.712 256.244 565.348 256.252 564.892C256.268 564.66 256.276 564.416 256.276 564.16C256.284 563.904 256.284 563.648 256.276 563.392C256.276 563.136 256.268 562.9 256.252 562.684C256.244 562.244 256.144 561.888 255.952 561.616C255.768 561.344 255.468 561.204 255.052 561.196C254.644 561.204 254.344 561.344 254.152 561.616C253.968 561.888 253.868 562.244 253.852 562.684C253.852 562.9 253.848 563.136 253.84 563.392C253.84 563.648 253.84 563.904 253.84 564.16C253.848 564.416 253.852 564.66 253.852 564.892C253.868 565.348 253.972 565.712 254.164 565.984C254.356 566.248 254.652 566.38 255.052 566.38ZM260.149 568C260.061 568 259.989 567.972 259.933 567.916C259.877 567.852 259.849 567.78 259.849 567.7V562.06C259.849 561.972 259.877 561.9 259.933 561.844C259.989 561.788 260.061 561.76 260.149 561.76H261.457C261.545 561.76 261.617 561.788 261.673 561.844C261.729 561.9 261.757 561.972 261.757 562.06V562.468C261.917 562.252 262.141 562.064 262.429 561.904C262.717 561.736 263.057 561.648 263.449 561.64C264.377 561.616 265.013 561.96 265.357 562.672C265.541 562.368 265.801 562.12 266.137 561.928C266.481 561.736 266.857 561.64 267.265 561.64C267.681 561.64 268.053 561.736 268.381 561.928C268.717 562.112 268.985 562.4 269.185 562.792C269.385 563.176 269.485 563.676 269.485 564.292V567.7C269.485 567.78 269.457 567.852 269.401 567.916C269.345 567.972 269.273 568 269.185 568H267.793C267.705 568 267.629 567.972 267.565 567.916C267.509 567.852 267.481 567.78 267.481 567.7V564.376C267.481 564.096 267.441 563.876 267.361 563.716C267.281 563.548 267.173 563.428 267.037 563.356C266.901 563.284 266.745 563.248 266.569 563.248C266.425 563.248 266.281 563.284 266.137 563.356C266.001 563.428 265.889 563.548 265.801 563.716C265.721 563.876 265.681 564.096 265.681 564.376V567.7C265.681 567.78 265.653 567.852 265.597 567.916C265.541 567.972 265.469 568 265.381 568H263.989C263.901 568 263.829 567.972 263.773 567.916C263.717 567.852 263.689 567.78 263.689 567.7V564.376C263.689 564.096 263.645 563.876 263.557 563.716C263.469 563.548 263.357 563.428 263.221 563.356C263.085 563.284 262.937 563.248 262.777 563.248C262.625 563.248 262.477 563.284 262.333 563.356C262.197 563.428 262.085 563.548 261.997 563.716C261.917 563.876 261.877 564.092 261.877 564.364V567.7C261.877 567.78 261.845 567.852 261.781 567.916C261.725 567.972 261.657 568 261.577 568H260.149Z" fill="white"/>
</g>
</g>
<defs>
<filter id="filter0_b_2145_423" x="-10" y="542" width="380" height="44" filterUnits="userSpaceOnUse" color-interpolation-filters="sRGB">
<feFlood flood-opacity="0" result="BackgroundImageFix"/>
<feGaussianBlur in="BackgroundImageFix" stdDeviation="5"/>
<feComposite in2="SourceAlpha" operator="in" result="effect1_backgroundBlur_2145_423"/>
<feBlend mode="normal" in="SourceGraphic" in2="effect1_backgroundBlur_2145_423" result="shape"/>
</filter>
<linearGradient id="paint0_linear_2145_423" x1="34.6667" y1="43" x2="29.3333" y2="43" gradientUnits="userSpaceOnUse">
<stop stop-color="#FFEB3B"/>
<stop offset="1" stop-color="#FFC107"/>
</linearGradient>
<linearGradient id="paint1_linear_2145_423" x1="44" y1="30.6667" x2="20" y2="30.6667" gradientUnits="userSpaceOnUse">
<stop stop-color="#FFEB3B"/>
<stop offset="1" stop-color="#FFC107"/>
</linearGradient>
<clipPath id="clip0_2145_423">
<rect width="360" height="640" fill="white"/>
</clipPath>
</defs>
</svg>
